<?xml version="1.0" encoding="utf-8"?>
<!-- Generator: Adobe Illustrator 23.0.3, SVG Export Plug-In . SVG Version: 6.00 Build 0)  -->
<svg version="1.1" id="Layer_1" xmlns="http://www.w3.org/2000/svg" xmlns:xlink="http://www.w3.org/1999/xlink" x="0px" y="0px"
	 viewBox="0 0 100 100" style="enable-background:new 0 0 100 100;" xml:space="preserve">
<style type="text/css">
	.st0{fill:#404040;}
	.st1{fill:#606060;}
	.st2{fill:#757575;}
	.st3{fill:#AEAEAE;}
	.st4{fill:#545454;}
	.st5{fill:#9F9F9F;}
	.st6{fill:#7C7C7C;}
	.st7{fill:#7D7D7D;}
	.st8{fill:#5F5F5F;}
	.st9{fill:#747474;}
	.st10{fill:#666666;}
	.st11{fill:#525252;}
	.st12{fill:#676767;}
	.st13{fill:#737373;}
	.st14{fill:#252525;}
	.st15{fill:#454545;}
	.st16{fill:#303030;}
	.st17{fill:#5A5A5A;}
</style>
<g>
	<path class="st0" d="M85.03,31.31c1.92,0.17,3.21,1.59,2.99,3.51c-0.42,3.69-0.94,7.37-1.43,11.06c-0.79,5.91-1.57,11.81-2.4,17.72
		c-0.32,2.3-1.79,3.89-4.33,3.88c-13.83-0.04-27.66-0.02-41.5-0.02c-0.86,0-1.66-0.14-2.38-0.61c-1.14-0.31-1.37-1.3-1.57-2.23
		c-0.39-1.76-0.63-3.55-0.92-5.33c-0.81-4.93-1.65-9.86-2.47-14.79c-0.83-4.98-1.64-9.97-2.49-14.95c-0.09-0.55-0.11-1.1-0.07-1.66
		c0.03-0.46,0.22-0.8,0.71-0.89c0.86-1.61,1.55-1.9,3.09-1.76c1.07,0.09,2.15,0.06,3.19,0.4c0.21,0.07,0.37-0.04,0.53-0.15
		c0.67-0.4,1.36-0.07,2.02-0.01c2.15,0.2,4.31,0.29,6.44,0.64c2.98,0.5,5.99,0.62,8.98,1.03c1.15,0.16,2.29,0.36,3.44,0.54
		c4.15,0.23,8.24,0.96,12.37,1.36c3.22,0.31,6.43,0.72,9.64,1.08c1.76,0.2,3.51,0.5,5.27,0.65C84.55,30.81,84.71,31.18,85.03,31.31z
		"/>
	<path class="st1" d="M56.83,28.01c-1.56,0.07-3.06-0.41-4.59-0.55c-1.98-0.19-3.97-0.36-5.94-0.62c-2.16-0.29-4.32-0.58-6.49-0.76
		c-0.8-0.06-1.6-0.19-2.4-0.23c-0.51-0.02-0.99-0.1-1.43-0.36c0-5.52,0.01-11.04,0.01-16.57c0-1.09,0-1.09,1.1-1.09
		c2.69,0,5.38,0.01,8.07,0.02c0.21,0.13,0.33,0.34,0.25,0.56c-0.34,0.9-0.45,1.88-0.97,2.71c-0.72,0.3-0.93,0.71-0.85,1.72
		c0.06,0.79,0.52,1.46,1.1,1.6c0.39,0.09,0.71-0.04,0.98-0.31c0.53-0.54,0.79-1.18,0.67-1.95c-0.04-0.28-0.12-0.57-0.07-0.86
		c0.34-0.86,0.54-1.79,1.24-2.47c0.19-0.18,0.24-0.36,0-0.55c-0.15-0.12-0.3-0.25-0.21-0.48c0.11-0.19,0.3-0.22,0.49-0.25
		c0.46-0.13,0.93-0.15,1.4-0.15c3.48,0,6.97,0,10.45,0c0.47,0,0.94,0.01,1.4,0.15c0.19,0.03,0.38,0.06,0.49,0.24
		c0.1,0.63-0.42,0.46-0.78,0.59c0.92,0.82,1.47,1.84,1.82,2.99c-0.01,0.93-0.06,1.87,0.4,2.73c0.08,0.15,0.04,0.32-0.05,0.47
		c-0.43,0.46-0.93,0.23-1.4,0.14c-1.01-0.19-1.23-0.06-1.46,0.93c-0.87,3.61-1.65,7.24-2.49,10.86
		C57.44,27.06,57.44,27.7,56.83,28.01z"/>
	<path class="st2" d="M56.83,28.01c0.47-2.17,0.94-4.34,1.43-6.5c0.49-2.17,0.99-4.33,1.49-6.49c0.24-1.05,0.39-1.13,1.44-0.82
		c0.53,0.15,1.06,0.32,1.63,0.31c0.43-0.15,0.82,0.03,1.23,0.13c0.39,0.27,0.82,0.36,1.29,0.44c0.56,0.1,1.11,0.34,1.5,0.81
		c0.12,1-0.6,1.6-1.09,2.32c-0.65-0.03-0.96,0.33-1.06,0.92c-0.1,0.63,0.37,1.36,0.93,1.43c0.49,0.06,1-0.42,1.13-1.05
		c0.08-0.39-0.11-0.82,0.19-1.18c0.26-0.16,0.52-0.33,0.71-0.57c0.88-1.1,1.97-1.33,3.28-0.89c0.62,0.21,1.25,0.38,1.84,0.7
		c0.09,0.01,0.18,0.03,0.26,0.04c1.44,0.28,2.73,1.04,4.18,1.33c0.22,0.04,0.42,0.15,0.52,0.38c-0.07,0.51,0.44,0.73,0.57,1.14
		c0.25,0.75,0.52,1.5,0.47,2.31c-0.06,0.44-0.3,0.83-0.22,1.31c0.11,0.6,0.39,0.94,0.99,0.97c0.55,0.03,0.99-0.4,1.13-0.91
		c0.16-0.59-0.51-0.56-0.61-0.94c-0.16-0.72-0.1-1.46-0.2-2.18c-0.04-0.28,0.04-0.54,0.33-0.68c2.07,0.67,4.14,1.34,6.22,2
		c0.49,0.15,0.36,0.48,0.28,0.8c-0.53,2.35-1.06,4.7-1.58,7.06c-0.08,0.36-0.29,0.73-0.06,1.12c-4.5-0.44-8.98-0.98-13.46-1.54
		c-3.68-0.47-7.39-0.63-11.04-1.33C59.31,28.2,58.06,28.15,56.83,28.01z"/>
	<path class="st3" d="M29.16,26.99c-0.39,0.69-0.39,1.43-0.26,2.18c1.62,9.7,3.25,19.4,4.87,29.11c0.28,1.67,0.57,3.33,0.81,5.01
		c0.19,1.3,0.51,2.54,1.41,3.56c-0.3,0.09-0.32,0.36-0.38,0.59c-1.21,5.04-2.83,9.96-4.22,14.95c-0.29,1.02-0.25,1.08,0.81,1.1
		c0.83,0.01,1.66,0.02,2.49,0.03c0.33,0.32,0.1,0.6-0.08,0.88c-0.72,1.12-1.32,2.29-1.57,3.62c-0.05,0.28-0.14,0.55-0.53,0.5
		c-0.05-0.37-0.26-0.52-0.63-0.51c-0.47,0.01-0.95-0.03-1.41,0c-1.84,0.13-2.83-1.15-3.19-2.56c-0.24-0.94-0.07-1.84,0.19-2.78
		c1.05-3.65,2.02-7.33,3.03-10.99c0.1-0.35,0.16-0.71,0.31-1.04c1.1-2.43,0.56-4.86,0.15-7.33c-1.63-9.82-3.2-19.66-4.8-29.48
		c-0.51-3.12-1.01-6.24-1.53-9.36c-0.05-0.32-0.19-0.63-0.3-0.95c0.03-0.05,0.04-0.11,0.09-0.14c0.71-0.47,3.58-0.38,4.25,0.13
		C28.5,24.71,28.71,25.87,29.16,26.99z"/>
	<path class="st4" d="M32.51,88.51c0.25-1.87,1.1-3.48,2.17-4.99c0.98-0.6,1.81-1.38,2.93-1.82c2.15-0.86,4.17-0.15,5.77,0.95
		c0.38,0.26,0.73,0.58,1.11,0.86c1.42,0.73,1.81,2.13,2.3,3.47c0.16,0.44-0.11,0.8-0.14,1.2c0.4,2.69-0.1,5.19-1.67,7.43
		c-0.98,1.39-2.21,2.44-3.96,2.74c-0.87,0.44-1.79,0.19-2.69,0.16c-0.69-0.4-1.47-0.54-2.16-1.01c-2.02-1.37-2.99-3.33-3.53-5.6
		C32.38,90.78,32.42,89.65,32.51,88.51z"/>
	<path class="st4" d="M81,88c0.34,2.36,0.07,4.63-1.12,6.73c-1.02,1.8-2.37,3.22-4.53,3.62c-0.93,0.44-1.9,0.2-2.86,0.16
		c-0.58-0.48-1.32-0.6-1.95-1.02c-2.23-1.49-3.16-3.66-3.53-6.17c-0.15-0.99-0.08-1.99,0-2.98c-0.42-1.21,0.13-2.23,0.6-3.28
		c0.3-0.67,0.69-1.26,1.42-1.53c0.95-0.5,1.69-1.28,2.7-1.74c2.26-1.02,4.35-0.28,6,0.85c0.38,0.26,0.73,0.58,1.1,0.86
		c1.44,0.74,1.87,2.15,2.3,3.55C81.24,87.38,81.22,87.71,81,88z"/>
	<path class="st4" d="M28.67,23.5c-1.45,0-2.89,0-4.34,0c-0.51-1.21-0.54-2.53-0.8-3.8c-0.38-1.89-0.34-1.9-2.29-1.9
		c-2.14,0-4.28,0.06-6.41-0.02c-1.37-0.06-2.31-0.85-2.56-2.55c-0.19-1.31,0.53-2.73,1.65-3.13c0.26-0.09,0.54-0.16,0.81-0.16
		c2.75,0,5.49,0.05,8.24,0.01c2.28-0.03,3.83,1.6,4.31,3.56c0.59,2.45,0.96,4.95,1.41,7.43C28.72,23.12,28.8,23.32,28.67,23.5z"/>
	<path class="st3" d="M69.03,83.53c-0.44,0.79-1,1.5-1.35,2.34c-0.34,0.8-0.46,1.64-0.67,2.46c-0.17-0.4-0.53-0.34-0.86-0.34
		c-6.24,0-12.47,0-18.71,0c-0.28,0-0.56-0.01-0.79,0.18c-0.27-1.76-1.14-3.25-2.15-4.67c8.01,0,16.02-0.01,24.03-0.01
		C68.69,83.49,68.86,83.52,69.03,83.53z"/>
	<path class="st5" d="M61.47,8.01c-0.11-0.07-0.22-0.14-0.33-0.21c-0.48-0.37-0.89-0.82-1.3-1.28c-1.53-1.76-3.49-2.69-5.79-2.58
		c-2.08,0.1-3.79,1.14-5.16,2.71c-0.37,0.42-0.77,0.79-1.19,1.15c-0.11,0.07-0.22,0.14-0.33,0.21c0.26,0.39,0.06,0.74-0.14,1.07
		c-0.41,0.71-0.72,1.47-0.92,2.27c-0.12,0.44,0.07,0.89-0.07,1.35c-0.24,0.79-0.79,1.23-1.5,1.14c-0.68-0.08-1.15-0.7-1.1-1.51
		c0.03-0.49,0.05-1.01,0.57-1.3c0.32-1.06,0.64-2.12,0.96-3.18c0.8-0.99,1.36-2.15,2.26-3.07c1.75-1.77,3.66-3.12,6.31-2.95
		c1.02,0.07,2.06-0.12,3.07,0.12c2.77,0.66,4.75,2.36,6.19,4.76c0.23,0.38,0.46,0.76,0.69,1.14c1.03,0.76,1.18,1.9,1.3,3.05
		c0.02,0.4,0.23,0.74,0.31,1.12c0.12,0.52,0.06,0.99-0.29,1.41c-0.36,0.43-0.82,0.69-1.39,0.57c-0.55-0.12-0.8-0.56-0.95-1.06
		c-0.16-0.52-0.05-1.08-0.18-1.61c-0.18-0.82-0.59-1.55-0.94-2.3C61.4,8.69,61.23,8.37,61.47,8.01z"/>
	<path class="st1" d="M64.65,10.85c-0.32-1-0.64-2-0.97-3c2.99,0,5.98,0,8.97,0c0.22,1.71,0.05,3.42,0.09,5.13
		c0.01,0.37-0.27,0.5-0.59,0.59c-0.59,0.16-1.19,0.23-1.77,0.44c-1.06,0.38-1.98,0.98-2.83,1.71c-0.24,0.21-0.47,0.51-0.87,0.3
		c-0.95-0.34-1.9-0.68-2.84-1.02c0.01-0.35,0.32-0.42,0.54-0.57C65.65,13.51,65.76,11.98,64.65,10.85z"/>
	<path class="st5" d="M71.27,15.42c-0.42,0.04-0.84,0.13-1.19,0.35c-1.24,0.78-2.38,1.68-3.17,2.95c-0.09,0.31-0.13,0.62-0.24,0.92
		c-0.27,0.69-0.65,0.97-1.2,0.82c-0.54-0.15-0.89-0.74-0.76-1.35c0.1-0.48,0.25-0.95,0.81-1.1c0.39-0.67,0.78-1.33,1.16-2
		c1.43-1.56,3.14-2.61,5.28-2.8c0.52-0.05,0.73-0.27,0.72-0.79c-0.02-1.52-0.02-3.05-0.03-4.57c0.3,0.26,0.2,0.62,0.2,0.94
		c0.01,1.27,0.01,2.55,0.01,3.82c0,0.36,0.05,0.62,0.49,0.72c1.79,0.41,3.34,1.22,4.55,2.65c0.8,0.94,1.46,1.93,1.82,3.12
		c0.13,0.42,0.29,0.83,0.44,1.25c0.06,1,0.12,2.01,0.19,3.01c0.45,0.38,0.35,0.83,0.09,1.22c-0.27,0.39-0.71,0.52-1.17,0.4
		c-0.46-0.12-0.69-0.44-0.73-0.93c-0.02-0.18,0.02-0.35-0.01-0.52c0.48-1.24-0.03-2.37-0.42-3.51c-0.23-1.58-1.3-2.62-2.39-3.62
		c-0.42-0.39-0.92-0.7-1.5-0.83"/>
	<path class="st3" d="M81,88c-0.36-1.67-1.16-3.14-2.17-4.5c0.94,0,1.89-0.08,2.83,0c1.64,0.14,3.08,0.84,4.34,1.87
		c0.56,0.46,0.7,1.8,0.34,2.5c-0.34,0.66-0.76,1.25-1.65,1.14c-0.25-0.03-0.51-0.06-0.71-0.21C83.1,88.14,82.07,87.99,81,88z"/>
	<path class="st6" d="M72.49,98.51c0.94-0.33,1.91-0.1,2.86-0.16c-0.04,0.13-0.05,0.31-0.14,0.37
		C74.84,98.99,72.92,98.83,72.49,98.51z"/>
	<path class="st7" d="M38.33,98.51c0.88-0.34,1.79-0.1,2.69-0.16c-0.03,0.11-0.03,0.25-0.1,0.31
		C40.53,98.99,38.73,98.88,38.33,98.51z"/>
	<path class="st1" d="M50.17,42.16c-0.94,0-1.89-0.04-2.83,0.01c-0.8,0.05-1.1-0.33-1.15-1.06c-0.11-1.55-0.23-3.09-0.35-4.64
		c-0.09-1.16-0.18-2.32-0.29-3.48c-0.06-0.57,0.07-0.79,0.72-0.74c2.18,0.16,4.3,0.76,6.5,0.79c0.77,0.01,1.14,0.36,1.08,1.2
		c-0.14,2,0.17,3.99,0.16,5.98c-0.01,1.93-0.01,1.93-1.92,1.93C51.44,42.16,50.8,42.16,50.17,42.16z"/>
	<path class="st1" d="M35.98,31.18c1.83,0.22,3.67,0.45,5.5,0.66c0.51,0.06,0.8,0.24,0.86,0.8c0.3,2.92,0.62,5.83,0.95,8.75
		c0.07,0.62-0.24,0.78-0.78,0.77c-2.19-0.01-4.38-0.02-6.57-0.03c-0.36-0.32-0.31-0.79-0.32-1.18c-0.08-2.96-0.06-5.92-0.02-8.89
		C35.62,31.72,35.7,31.41,35.98,31.18z"/>
	<path class="st1" d="M39.87,46c1,0,2,0.01,3,0c0.59-0.01,0.91,0.17,0.98,0.83c0.21,2.04,0.46,4.08,0.72,6.11
		c0.08,0.63-0.18,0.88-0.77,0.88c-1.92,0-3.83-0.01-5.75,0.01c-0.59,0-0.88-0.3-0.96-0.83c-0.33-2.11-0.63-4.22-0.96-6.33
		C36.05,46.11,36.32,46,36.79,46C37.82,46.01,38.85,46,39.87,46z"/>
	<path class="st2" d="M63.51,38.31c0,1-0.02,2,0.01,2.99c0.01,0.59-0.19,0.87-0.81,0.86c-1.72-0.02-3.44-0.02-5.15,0
		c-0.58,0-0.86-0.22-0.88-0.83c-0.04-2.3-0.12-4.59-0.17-6.89c-0.02-0.94,0.09-0.96,1.02-0.82c1.69,0.26,3.4,0.48,5.1,0.66
		c0.69,0.07,0.89,0.4,0.87,1.03c-0.02,1-0.01,1.99-0.01,2.99C63.5,38.31,63.5,38.31,63.51,38.31z"/>
	<path class="st2" d="M66.16,49.93c0-1.06,0.01-2.11,0-3.17C66.15,46.24,66.37,46,66.9,46c1.89,0.01,3.78,0.01,5.67,0
		c0.51,0,0.78,0.19,0.76,0.73c-0.07,2.11-0.12,4.22-0.19,6.32c-0.02,0.5-0.27,0.76-0.79,0.76c-1.83,0-3.67,0-5.5,0
		c-0.56,0-0.7-0.32-0.7-0.81C66.16,51.98,66.16,50.95,66.16,49.93z"/>
	<path class="st2" d="M66.18,38.33c0-0.97-0.01-1.94,0.01-2.91c0.01-0.62,0.14-0.93,0.96-0.72c1.17,0.29,2.41,0.33,3.62,0.47
		c0.72,0.08,1.43,0.13,2.15,0.19c0.49,0.04,0.74,0.28,0.76,0.79c0.08,1.81-0.21,3.6-0.19,5.4c0.01,0.41-0.23,0.6-0.63,0.6
		c-2,0-3.99,0-5.99,0c-0.56,0-0.69-0.35-0.69-0.83C66.19,40.32,66.18,39.33,66.18,38.33z"/>
	<path class="st2" d="M63.51,49.92c0,1.02-0.02,2.05,0.01,3.07c0.01,0.61-0.25,0.84-0.85,0.84c-1.61-0.02-3.21-0.02-4.82,0
		c-0.59,0.01-0.83-0.21-0.87-0.82c-0.11-2.02-0.16-4.04-0.17-6.06c-0.01-0.73,0.27-0.97,0.98-0.96c1.61,0.03,3.21,0.03,4.82,0
		c0.69-0.01,0.94,0.26,0.91,0.93C63.48,47.92,63.51,48.92,63.51,49.92z"/>
	<path class="st2" d="M79.33,42.16c-0.83,0-1.66-0.02-2.49,0.01c-0.6,0.02-0.9-0.23-0.82-0.83c0.19-1.46,0.12-2.93,0.18-4.4
		c0.02-0.62,0.26-1.01,0.96-0.94c1.87,0.18,3.75,0.35,5.62,0.51c0.49,0.04,0.58,0.37,0.54,0.76c-0.15,1.42-0.23,2.85-0.62,4.24
		c-0.13,0.47-0.33,0.65-0.79,0.64C81.05,42.14,80.19,42.15,79.33,42.16C79.33,42.15,79.33,42.16,79.33,42.16z"/>
	<path class="st1" d="M54.31,53.49c-0.17,0.4-0.53,0.34-0.86,0.34c-1.75,0-3.49-0.02-5.24,0.01c-0.75,0.01-1.02-0.31-1.06-1.04
		c-0.1-1.99-0.21-3.98-0.4-5.96c-0.06-0.67,0.15-0.84,0.75-0.83c1.72,0.02,3.44,0.01,5.16,0.01c0.44,0.67,0.15,1.35-0.01,2
		c-0.21,0.83-0.39,1.67-0.56,2.5c-0.28,1.38,0.22,2.21,1.57,2.61C53.92,53.2,54.14,53.3,54.31,53.49z"/>
	<path class="st2" d="M80.03,53.81c-1.24,0-2.49-0.01-3.73,0.01c-0.56,0.01-0.81-0.23-0.79-0.79c0.07-2.1,0.13-4.2,0.18-6.3
		c0.01-0.59,0.35-0.74,0.87-0.74c1.66,0.02,3.32,0.02,4.98,0.02c0.24,0.2,0.27,0.45,0.21,0.75c-0.46,2.16-0.89,4.33-1.39,6.48
		C80.29,53.48,80.19,53.66,80.03,53.81z"/>
	<path class="st8" d="M38.5,61.5c-0.18-1.09-0.34-2.19-0.54-3.28c-0.1-0.52,0.08-0.72,0.59-0.72c1.91,0.01,3.82,0.01,5.73,0
		c0.54,0,0.82,0.23,0.87,0.78c0.11,1.18,0.23,2.37,0.34,3.55c-0.22,0.25-0.49,0.3-0.83,0.31c-1.72,0.03-3.44,0.04-5.17,0
		C38.94,62.12,38.66,61.99,38.5,61.5z"/>
	<path class="st1" d="M48,61.83c-0.11-1.1-0.2-2.2-0.32-3.29c-0.08-0.73,0.15-1.07,0.95-1.05c1.63,0.04,3.26,0.04,4.89,0
		c0.78-0.02,1.02,0.29,0.99,1.03c-0.04,1.1-0.01,2.21-0.01,3.31c-0.22,0.25-0.49,0.31-0.83,0.31c-1.61,0.03-3.23,0.03-4.84,0
		C48.5,62.14,48.22,62.08,48,61.83z"/>
	<path class="st8" d="M57.17,61.83c-0.05-1.16-0.22-2.32-0.17-3.49c0.02-0.6,0.23-0.85,0.84-0.85c1.61,0.02,3.22,0.02,4.83,0
		c0.6-0.01,0.86,0.24,0.84,0.84c-0.02,1.17-0.01,2.33-0.01,3.5c-0.22,0.25-0.49,0.32-0.82,0.32c-1.56,0.01-3.13,0.02-4.69,0
		C57.66,62.15,57.39,62.08,57.17,61.83z"/>
	<path class="st2" d="M54.31,53.49c-2.21,0.05-3.09-1.03-2.59-3.21c0.32-1.42,0.64-2.84,0.95-4.27c0.13,0,0.27-0.01,0.4-0.01
		c1.05,0,1.09,0.04,1.1,1.09c0,0.13,0,0.27,0,0.4c0.17,1.37,0.03,2.75,0.08,4.12c0.02,0.52-0.09,1.04,0.07,1.56
		C54.32,53.27,54.32,53.38,54.31,53.49z"/>
	<path class="st2" d="M75.16,59.99c-0.01-2.5-0.01-2.5,2.49-2.5c0.44,0,0.88,0,1.33-0.01c0.12,0.12,0.26,0.24,0.24,0.41
		c-0.15,0.93-0.15,1.9-0.81,2.67c-0.59,0.22-1,0.74-1.65,0.88C75.31,61.78,74.94,61.46,75.16,59.99z"/>
	<path class="st9" d="M72.67,60.18c0,0.05,0,0.1-0.01,0.16c-0.43,0.32-0.88,0.14-1.26-0.03c-1.46-0.66-3.07-0.86-4.52-1.55
		c-0.33-0.16-0.64-0.31-0.88-0.59c-0.04-0.66,0.41-0.67,0.88-0.67c1.93,0,3.85,0.01,5.78,0.01C72.81,58.39,72.79,59.28,72.67,60.18z
		"/>
	<path class="st10" d="M66.01,58.16c1.72,0.3,3.3,1.04,4.97,1.51c0.58,0.16,1.13,0.44,1.69,0.66c-0.01,0.4-0.02,0.81-0.03,1.21
		c-0.15,0.16-0.21,0.45-0.52,0.41c-0.45-0.26-0.98-0.3-1.47-0.45c-0.9-0.38-1.81-0.71-2.76-0.97c-0.75-0.2-1.51-0.4-1.89-1.19
		C66.01,58.94,66.01,58.55,66.01,58.16z"/>
	<path class="st8" d="M66,59.33c1.54,0.79,3.29,1.04,4.83,1.84c-0.04,0.69-0.5,0.88-1.09,0.95c-1.04,0.12-2.07,0.01-3.11,0.04
		c-0.26,0.01-0.46-0.14-0.63-0.33C66,61,66,60.17,66,59.33z"/>
	<path class="st11" d="M66,61.83c0.89,0,1.78-0.03,2.66,0.01c0.82,0.04,1.53-0.18,2.17-0.67c0.52,0.06,1.1,0.01,1.33,0.66
		c0.2,0.46-0.24,0.48-0.45,0.66c-1.63,0-3.26,0-4.89,0.01C66.35,62.5,65.99,62.41,66,61.83z"/>
	<path class="st11" d="M38.5,61.5c0.32,0.35,0.74,0.34,1.16,0.33c1.94,0,3.89,0,5.83-0.01c0.01,0.45-0.2,0.66-0.65,0.66
		c-1.85,0-3.71,0-5.56,0C38.59,62.5,38.48,62.06,38.5,61.5z"/>
	<path class="st11" d="M48,61.83c2.17,0,4.33,0,6.5,0c0.01,0.5-0.27,0.67-0.73,0.67c-1.68-0.01-3.35-0.01-5.03,0
		C48.27,62.5,47.99,62.33,48,61.83z"/>
	<path class="st11" d="M57.17,61.83c2.11,0,4.22,0,6.33,0c0.01,0.5-0.27,0.67-0.73,0.67c-1.62-0.01-3.24-0.01-4.87,0
		C57.44,62.5,57.16,62.33,57.17,61.83z"/>
	<path class="st12" d="M78.2,60.38c-0.28,0.77-0.66,1.47-1.48,1.81c-0.28,0.07-0.54,0.15-0.81,0.3c-0.3,0.18-0.67,0.14-0.94-0.16
		c0.09-0.78-0.13-1.57,0.18-2.33c0.07,0.38-0.17,0.93,0.33,1.09c0.74,0.23,1.45-0.02,2.11-0.4C77.79,60.57,77.89,60.25,78.2,60.38z"
		/>
	<path class="st13" d="M74.98,62.32c0.58-0.05,1.16-0.09,1.74-0.14c-0.07,0.05-0.17,0.08-0.19,0.15c-0.08,0.27,0.16,0.14,0.23,0.14
		c1.08,0.02,2.16,0.03,3.25,0.04c-0.17,0.34-0.49,0.31-0.79,0.31c-1.16,0-2.32,0.01-3.48,0C75.39,62.82,74.96,62.9,74.98,62.32z"/>
	<path class="st1" d="M54.32,53.17c-0.31-0.8-0.13-1.63-0.15-2.45c-0.03-1.07,0-2.15,0-3.22c0.31,0.86,0.12,1.75,0.15,2.62
		C54.36,51.13,54.33,52.15,54.32,53.17z"/>
	<path class="st10" d="M72.67,60.18c0-0.89-0.01-1.78-0.01-2.67C72.94,58.39,72.91,59.28,72.67,60.18z"/>
	<path class="st14" d="M44.2,11.02c-0.07,0.46-0.18,0.92-0.2,1.38c-0.03,0.57,0.26,0.97,0.83,1.05c0.56,0.08,0.87-0.27,1.01-0.77
		c0.14-0.5,0.23-1.01,0.34-1.52c0.19-0.1,0.25,0.03,0.31,0.17c0.39,1.01,0.48,1.97-0.29,2.87c-0.87,1.02-1.79,1.01-2.6-0.04
		c-0.68-0.87-0.58-2.5,0.19-3.22C43.97,10.77,44.13,10.62,44.2,11.02z"/>
	<path class="st14" d="M64.65,10.85c0.4-0.26,0.53,0.14,0.68,0.33c1.12,1.44,0.32,3.49-1.49,3.82c-0.37-0.11-0.77-0.14-1.02-0.49
		c-0.83-0.96-0.72-2.06-0.48-3.17c0.06-0.16,0.15-0.26,0.34-0.17c0.12,0.51,0.22,1.02,0.35,1.52c0.12,0.5,0.32,1.03,0.94,0.94
		c0.65-0.09,1.02-0.56,0.97-1.23C64.89,11.87,64.75,11.36,64.65,10.85z"/>
	<path class="st15" d="M62.67,11.16c-0.11,0.06-0.23,0.11-0.34,0.17c-0.35-0.58-0.67-1.2-1.07-1.75c-0.38-0.52-0.85-0.98-1.37-1.57
		c0.57,0,1.07,0,1.58,0C62.04,9,62.54,10.01,62.67,11.16z"/>
	<path class="st15" d="M46.48,11.34c-0.1-0.06-0.21-0.12-0.31-0.17c0.16-1.14,0.6-2.18,1.2-3.16c0.41,0.05,1.04-0.24,1.19,0.18
		c0.12,0.35-0.43,0.69-0.77,0.97C47.09,9.74,46.87,10.59,46.48,11.34z"/>
	<path class="st8" d="M66.86,18.52c0.62-1.17,1.48-2.14,2.56-2.9c0.82-0.58,1.81-0.67,2.78-0.75c0.41-0.03,0.48,0.3,0.49,0.63
		c0,0.83,0.01,1.67,0.01,2.5c-0.64-0.34-1.33-0.52-2.01-0.75c-1.03-0.36-1.89-0.14-2.68,0.56c-0.31,0.27-0.57,0.61-1.01,0.7
		C66.96,18.62,66.91,18.63,66.86,18.52z"/>
	<path class="st16" d="M66.86,18.52c0.04,0,0.08-0.01,0.13-0.01c0,0.57,0.15,1.16-0.18,1.7c-0.27,0.46-0.53,0.94-1.16,0.92
		c-0.66-0.02-0.95-0.53-1.19-1.02c-0.47-0.97,0.13-2.13,1.06-2.1c-0.25,0.46-0.51,0.91-0.42,1.46c0.05,0.32,0.2,0.57,0.55,0.61
		c0.3,0.04,0.53-0.1,0.66-0.38C66.49,19.31,66.68,18.91,66.86,18.52z"/>
	<path class="st16" d="M78.85,23.35c0,0.19-0.03,0.39-0.01,0.57c0.05,0.37,0.2,0.71,0.64,0.72c0.42,0.01,0.74-0.21,0.83-0.64
		c0.04-0.21,0.03-0.43,0.04-0.65c0.2-0.44,0.36-0.32,0.5,0.04c0.23,0.63,0.1,1.21-0.32,1.7c-0.4,0.47-0.96,0.51-1.52,0.32
		c-0.62-0.21-0.77-0.74-0.83-1.31c-0.05-0.46,0.1-0.87,0.32-1.26c0.12-0.09,0.05-0.37,0.29-0.32c0.17,0.04,0.12,0.22,0.13,0.35
		C78.92,23.03,78.94,23.2,78.85,23.35z"/>
	<path class="st17" d="M78.85,23.35c-0.13-0.16,0.24-0.67-0.35-0.52c-0.01-0.99-0.34-1.87-0.83-2.71c-0.12-0.21-0.32-0.39-0.13-0.66
		c0.33-0.04,0.51,0.26,0.78,0.36C78.96,20.93,79.09,22.11,78.85,23.35z"/>
</g>
</svg>
