<?xml version="1.0" encoding="utf-8"?>
<!-- Generator: Adobe Illustrator 23.0.3, SVG Export Plug-In . SVG Version: 6.00 Build 0)  -->
<svg version="1.1" id="Layer_1" xmlns="http://www.w3.org/2000/svg" xmlns:xlink="http://www.w3.org/1999/xlink" x="0px" y="0px"
	 viewBox="0 0 100 100" style="enable-background:new 0 0 100 100;" xml:space="preserve">
<style type="text/css">
	.st0{fill:#404040;}
	.st1{fill:#606060;}
	.st2{fill:#757575;}
	.st3{fill:#AEAEAE;}
	.st4{fill:#545454;}
	.st5{fill:#9F9F9F;}
	.st6{fill:#7C7C7C;}
	.st7{fill:#7D7D7D;}
	.st8{fill:#5F5F5F;}
	.st9{fill:#747474;}
	.st10{fill:#666666;}
	.st11{fill:#525252;}
	.st12{fill:#676767;}
	.st13{fill:#737373;}
	.st14{fill:#252525;}
	.st15{fill:#454545;}
	.st16{fill:#303030;}
	.st17{fill:#5A5A5A;}
</style>
<g>
	<path class="st0" d="M78,31.3c1.9,0.2,3.2,1.6,3,3.5c-0.4,3.7-0.9,7.4-1.4,11.1c-0.8,5.9-1.6,11.8-2.4,17.7
		c-0.3,2.3-1.8,3.9-4.3,3.9c-13.8,0-27.7,0-41.5,0c-0.9,0-1.7-0.1-2.4-0.6c-1.1-0.3-1.4-1.3-1.6-2.2c-0.4-1.8-0.6-3.5-0.9-5.3
		c-0.8-4.9-1.6-9.9-2.5-14.8c-0.8-5-1.6-10-2.5-15c-0.1-0.5-0.1-1.1-0.1-1.7c0-0.5,0.2-0.8,0.7-0.9c0.9-1.6,1.5-1.9,3.1-1.8
		c1.1,0.1,2.2,0.1,3.2,0.4c0.2,0.1,0.4,0,0.5-0.1c0.7-0.4,1.4-0.1,2,0c2.2,0.2,4.3,0.3,6.4,0.6c3,0.5,6,0.6,9,1
		c1.2,0.2,2.3,0.4,3.4,0.5c4.2,0.2,8.2,1,12.4,1.4c3.2,0.3,6.4,0.7,9.6,1.1c1.8,0.2,3.5,0.5,5.3,0.6C77.5,30.8,77.7,31.2,78,31.3z"
		/>
	<path class="st1" d="M49.8,28c-1.6,0.1-3.1-0.4-4.6-0.5c-2-0.2-4-0.4-5.9-0.6c-2.2-0.3-4.3-0.6-6.5-0.8c-0.8-0.1-1.6-0.2-2.4-0.2
		c-0.5,0-1-0.1-1.4-0.4c0-5.5,0-11,0-16.6c0-1.1,0-1.1,1.1-1.1c2.7,0,5.4,0,8.1,0c0.2,0.1,0.3,0.3,0.3,0.6c-0.3,0.9-0.5,1.9-1,2.7
		c-0.7,0.3-0.9,0.7-0.8,1.7c0.1,0.8,0.5,1.5,1.1,1.6c0.4,0.1,0.7,0,1-0.3c0.5-0.5,0.8-1.2,0.7-1.9c0-0.3-0.1-0.6-0.1-0.9
		c0.3-0.9,0.5-1.8,1.2-2.5c0.2-0.2,0.2-0.4,0-0.6c-0.2-0.1-0.3-0.3-0.2-0.5c0.1-0.2,0.3-0.2,0.5-0.3c0.5-0.1,0.9-0.2,1.4-0.2
		c3.5,0,7,0,10.5,0c0.5,0,0.9,0,1.4,0.2c0.2,0,0.4,0.1,0.5,0.2c0.1,0.6-0.4,0.5-0.8,0.6c0.9,0.8,1.5,1.8,1.8,3
		c0,0.9-0.1,1.9,0.4,2.7c0.1,0.1,0,0.3,0,0.5c-0.4,0.5-0.9,0.2-1.4,0.1c-1-0.2-1.2-0.1-1.5,0.9c-0.9,3.6-1.7,7.2-2.5,10.9
		C50.4,27.1,50.4,27.7,49.8,28z"/>
	<path class="st2" d="M49.8,28c0.5-2.2,0.9-4.3,1.4-6.5c0.5-2.2,1-4.3,1.5-6.5c0.2-1.1,0.4-1.1,1.4-0.8c0.5,0.1,1.1,0.3,1.6,0.3
		c0.4-0.1,0.8,0,1.2,0.1c0.4,0.3,0.8,0.4,1.3,0.4c0.6,0.1,1.1,0.3,1.5,0.8c0.1,1-0.6,1.6-1.1,2.3c-0.7,0-1,0.3-1.1,0.9
		c-0.1,0.6,0.4,1.4,0.9,1.4c0.5,0.1,1-0.4,1.1-1c0.1-0.4-0.1-0.8,0.2-1.2c0.3-0.2,0.5-0.3,0.7-0.6c0.9-1.1,2-1.3,3.3-0.9
		c0.6,0.2,1.3,0.4,1.8,0.7c0.1,0,0.2,0,0.3,0c1.4,0.3,2.7,1,4.2,1.3c0.2,0,0.4,0.1,0.5,0.4c-0.1,0.5,0.4,0.7,0.6,1.1
		c0.3,0.8,0.5,1.5,0.5,2.3c-0.1,0.4-0.3,0.8-0.2,1.3c0.1,0.6,0.4,0.9,1,1c0.6,0,1-0.4,1.1-0.9c0.2-0.6-0.5-0.6-0.6-0.9
		c-0.2-0.7-0.1-1.5-0.2-2.2c0-0.3,0-0.5,0.3-0.7c2.1,0.7,4.1,1.3,6.2,2c0.5,0.1,0.4,0.5,0.3,0.8c-0.5,2.4-1.1,4.7-1.6,7.1
		c-0.1,0.4-0.3,0.7-0.1,1.1c-4.5-0.4-9-1-13.5-1.5c-3.7-0.5-7.4-0.6-11-1.3C52.3,28.2,51.1,28.1,49.8,28z"/>
	<path class="st3" d="M22.2,27c-0.4,0.7-0.4,1.4-0.3,2.2c1.6,9.7,3.3,19.4,4.9,29.1c0.3,1.7,0.6,3.3,0.8,5c0.2,1.3,0.5,2.5,1.4,3.6
		c-0.3,0.1-0.3,0.4-0.4,0.6c-1.2,5-2.8,10-4.2,14.9c-0.3,1-0.3,1.1,0.8,1.1c0.8,0,1.7,0,2.5,0c0.3,0.3,0.1,0.6-0.1,0.9
		c-0.7,1.1-1.3,2.3-1.6,3.6c0,0.3-0.1,0.6-0.5,0.5c0-0.4-0.3-0.5-0.6-0.5c-0.5,0-1,0-1.4,0c-1.8,0.1-2.8-1.2-3.2-2.6
		c-0.2-0.9-0.1-1.8,0.2-2.8c1-3.7,2-7.3,3-11c0.1-0.3,0.2-0.7,0.3-1c1.1-2.4,0.6-4.9,0.1-7.3c-1.6-9.8-3.2-19.7-4.8-29.5
		c-0.5-3.1-1-6.2-1.5-9.4c0-0.3-0.2-0.6-0.3-1c0,0,0-0.1,0.1-0.1c0.7-0.5,3.6-0.4,4.3,0.1C21.5,24.7,21.7,25.9,22.2,27z"/>
	<path class="st4" d="M25.5,88.5c0.3-1.9,1.1-3.5,2.2-5c1-0.6,1.8-1.4,2.9-1.8c2.2-0.9,4.2-0.2,5.8,0.9c0.4,0.3,0.7,0.6,1.1,0.9
		c1.4,0.7,1.8,2.1,2.3,3.5c0.2,0.4-0.1,0.8-0.1,1.2c0.4,2.7-0.1,5.2-1.7,7.4c-1,1.4-2.2,2.4-4,2.7c-0.9,0.4-1.8,0.2-2.7,0.2
		c-0.7-0.4-1.5-0.5-2.2-1c-2-1.4-3-3.3-3.5-5.6C25.4,90.8,25.4,89.7,25.5,88.5z"/>
	<path class="st4" d="M74,88c0.3,2.4,0.1,4.6-1.1,6.7c-1,1.8-2.4,3.2-4.5,3.6c-0.9,0.4-1.9,0.2-2.9,0.2c-0.6-0.5-1.3-0.6-1.9-1
		c-2.2-1.5-3.2-3.7-3.5-6.2c-0.2-1-0.1-2,0-3c-0.4-1.2,0.1-2.2,0.6-3.3c0.3-0.7,0.7-1.3,1.4-1.5c0.9-0.5,1.7-1.3,2.7-1.7
		c2.3-1,4.3-0.3,6,0.8c0.4,0.3,0.7,0.6,1.1,0.9c1.4,0.7,1.9,2.2,2.3,3.6C74.2,87.4,74.2,87.7,74,88z"/>
	<path class="st4" d="M21.7,23.5c-1.5,0-2.9,0-4.3,0c-0.5-1.2-0.5-2.5-0.8-3.8c-0.4-1.9-0.3-1.9-2.3-1.9c-2.1,0-4.3,0.1-6.4,0
		c-1.4-0.1-2.3-0.9-2.6-2.6c-0.2-1.3,0.5-2.7,1.6-3.1c0.3-0.1,0.5-0.2,0.8-0.2c2.8,0,5.5,0.1,8.2,0c2.3,0,3.8,1.6,4.3,3.6
		c0.6,2.5,1,4.9,1.4,7.4C21.7,23.1,21.8,23.3,21.7,23.5z"/>
	<path class="st3" d="M62,83.5c-0.4,0.8-1,1.5-1.3,2.3c-0.3,0.8-0.5,1.6-0.7,2.5c-0.2-0.4-0.5-0.3-0.9-0.3c-6.2,0-12.5,0-18.7,0
		c-0.3,0-0.6,0-0.8,0.2c-0.3-1.8-1.1-3.3-2.2-4.7c8,0,16,0,24,0C61.7,83.5,61.9,83.5,62,83.5z"/>
	<path class="st5" d="M54.5,8c-0.1-0.1-0.2-0.1-0.3-0.2c-0.5-0.4-0.9-0.8-1.3-1.3c-1.5-1.8-3.5-2.7-5.8-2.6C45,4,43.3,5.1,41.9,6.7
		c-0.4,0.4-0.8,0.8-1.2,1.2c-0.1,0.1-0.2,0.1-0.3,0.2c0.3,0.4,0.1,0.7-0.1,1.1c-0.4,0.7-0.7,1.5-0.9,2.3c-0.1,0.4,0.1,0.9-0.1,1.4
		c-0.2,0.8-0.8,1.2-1.5,1.1c-0.7-0.1-1.2-0.7-1.1-1.5c0-0.5,0-1,0.6-1.3c0.3-1.1,0.6-2.1,1-3.2c0.8-1,1.4-2.2,2.3-3.1
		c1.8-1.8,3.7-3.1,6.3-3c1,0.1,2.1-0.1,3.1,0.1c2.8,0.7,4.8,2.4,6.2,4.8c0.2,0.4,0.5,0.8,0.7,1.1c1,0.8,1.2,1.9,1.3,3
		c0,0.4,0.2,0.7,0.3,1.1c0.1,0.5,0.1,1-0.3,1.4c-0.4,0.4-0.8,0.7-1.4,0.6c-0.5-0.1-0.8-0.6-1-1.1c-0.2-0.5,0-1.1-0.2-1.6
		c-0.2-0.8-0.6-1.6-0.9-2.3C54.4,8.7,54.2,8.4,54.5,8z"/>
	<path class="st1" d="M57.6,10.9c-0.3-1-0.6-2-1-3c3,0,6,0,9,0c0.2,1.7,0.1,3.4,0.1,5.1c0,0.4-0.3,0.5-0.6,0.6
		c-0.6,0.2-1.2,0.2-1.8,0.4c-1.1,0.4-2,1-2.8,1.7c-0.2,0.2-0.5,0.5-0.9,0.3c-0.9-0.3-1.9-0.7-2.8-1c0-0.4,0.3-0.4,0.5-0.6
		C58.6,13.5,58.8,12,57.6,10.9z"/>
	<path class="st5" d="M64.3,15.4c-0.4,0-0.8,0.1-1.2,0.4c-1.2,0.8-2.4,1.7-3.2,3c-0.1,0.3-0.1,0.6-0.2,0.9c-0.3,0.7-0.7,1-1.2,0.8
		c-0.5-0.1-0.9-0.7-0.8-1.4c0.1-0.5,0.3-1,0.8-1.1c0.4-0.7,0.8-1.3,1.2-2c1.4-1.6,3.1-2.6,5.3-2.8c0.5-0.1,0.7-0.3,0.7-0.8
		c0-1.5,0-3.1,0-4.6c0.3,0.3,0.2,0.6,0.2,0.9c0,1.3,0,2.6,0,3.8c0,0.4,0.1,0.6,0.5,0.7c1.8,0.4,3.3,1.2,4.6,2.6
		c0.8,0.9,1.5,1.9,1.8,3.1c0.1,0.4,0.3,0.8,0.4,1.3c0.1,1,0.1,2,0.2,3c0.4,0.4,0.3,0.8,0.1,1.2c-0.3,0.4-0.7,0.5-1.2,0.4
		s-0.7-0.4-0.7-0.9c0-0.2,0-0.4,0-0.5c0.5-1.2,0-2.4-0.4-3.5c-0.2-1.6-1.3-2.6-2.4-3.6c-0.4-0.4-0.9-0.7-1.5-0.8"/>
	<path class="st3" d="M74,88c-0.4-1.7-1.2-3.1-2.2-4.5c0.9,0,1.9-0.1,2.8,0c1.6,0.1,3.1,0.8,4.3,1.9c0.6,0.5,0.7,1.8,0.3,2.5
		c-0.3,0.7-0.8,1.3-1.7,1.1c-0.3,0-0.5-0.1-0.7-0.2C76.1,88.1,75.1,88,74,88z"/>
	<path class="st6" d="M65.5,98.5c0.9-0.3,1.9-0.1,2.9-0.2c0,0.1-0.1,0.3-0.1,0.4C67.8,99,65.9,98.8,65.5,98.5z"/>
	<path class="st7" d="M31.3,98.5c0.9-0.3,1.8-0.1,2.7-0.2c0,0.1,0,0.3-0.1,0.3C33.5,99,31.7,98.9,31.3,98.5z"/>
	<path class="st1" d="M43.2,42.2c-0.9,0-1.9,0-2.8,0c-0.8,0-1.1-0.3-1.2-1.1c-0.1-1.5-0.2-3.1-0.3-4.6c-0.1-1.2-0.2-2.3-0.3-3.5
		c-0.1-0.6,0.1-0.8,0.7-0.7c2.2,0.2,4.3,0.8,6.5,0.8c0.8,0,1.1,0.4,1.1,1.2c-0.1,2,0.2,4,0.2,6c0,1.9,0,1.9-1.9,1.9
		C44.4,42.2,43.8,42.2,43.2,42.2z"/>
	<path class="st1" d="M29,31.2c1.8,0.2,3.7,0.5,5.5,0.7c0.5,0.1,0.8,0.2,0.9,0.8c0.3,2.9,0.6,5.8,1,8.8c0.1,0.6-0.2,0.8-0.8,0.8
		c-2.2,0-4.4,0-6.6,0c-0.4-0.3-0.3-0.8-0.3-1.2c-0.1-3-0.1-5.9,0-8.9C28.6,31.7,28.7,31.4,29,31.2z"/>
	<path class="st1" d="M32.9,46c1,0,2,0,3,0c0.6,0,0.9,0.2,1,0.8c0.2,2,0.5,4.1,0.7,6.1c0.1,0.6-0.2,0.9-0.8,0.9c-1.9,0-3.8,0-5.8,0
		c-0.6,0-0.9-0.3-1-0.8c-0.3-2.1-0.6-4.2-1-6.3C29,46.1,29.3,46,29.8,46C30.8,46,31.8,46,32.9,46z"/>
	<path class="st2" d="M56.5,38.3c0,1,0,2,0,3c0,0.6-0.2,0.9-0.8,0.9c-1.7,0-3.4,0-5.2,0c-0.6,0-0.9-0.2-0.9-0.8
		c0-2.3-0.1-4.6-0.2-6.9c0-0.9,0.1-1,1-0.8c1.7,0.3,3.4,0.5,5.1,0.7c0.7,0.1,0.9,0.4,0.9,1C56.5,36.3,56.5,37.3,56.5,38.3
		C56.5,38.3,56.5,38.3,56.5,38.3z"/>
	<path class="st2" d="M59.2,49.9c0-1.1,0-2.1,0-3.2c0-0.5,0.2-0.8,0.7-0.8c1.9,0,3.8,0,5.7,0c0.5,0,0.8,0.2,0.8,0.7
		c-0.1,2.1-0.1,4.2-0.2,6.3c0,0.5-0.3,0.8-0.8,0.8c-1.8,0-3.7,0-5.5,0c-0.6,0-0.7-0.3-0.7-0.8C59.2,52,59.2,51,59.2,49.9z"/>
	<path class="st2" d="M59.2,38.3c0-1,0-1.9,0-2.9c0-0.6,0.1-0.9,1-0.7c1.2,0.3,2.4,0.3,3.6,0.5c0.7,0.1,1.4,0.1,2.2,0.2
		c0.5,0,0.7,0.3,0.8,0.8c0.1,1.8-0.2,3.6-0.2,5.4c0,0.4-0.2,0.6-0.6,0.6c-2,0-4,0-6,0c-0.6,0-0.7-0.3-0.7-0.8
		C59.2,40.3,59.2,39.3,59.2,38.3z"/>
	<path class="st2" d="M56.5,49.9c0,1,0,2,0,3.1c0,0.6-0.3,0.8-0.8,0.8c-1.6,0-3.2,0-4.8,0c-0.6,0-0.8-0.2-0.9-0.8
		c-0.1-2-0.2-4-0.2-6.1c0-0.7,0.3-1,1-1c1.6,0,3.2,0,4.8,0c0.7,0,0.9,0.3,0.9,0.9C56.5,47.9,56.5,48.9,56.5,49.9z"/>
	<path class="st2" d="M72.3,42.2c-0.8,0-1.7,0-2.5,0c-0.6,0-0.9-0.2-0.8-0.8c0.2-1.5,0.1-2.9,0.2-4.4c0-0.6,0.3-1,1-0.9
		c1.9,0.2,3.8,0.3,5.6,0.5c0.5,0,0.6,0.4,0.5,0.8c-0.2,1.4-0.2,2.8-0.6,4.2c-0.1,0.5-0.3,0.7-0.8,0.6C74,42.1,73.2,42.2,72.3,42.2
		C72.3,42.2,72.3,42.2,72.3,42.2z"/>
	<path class="st1" d="M47.3,53.5c-0.2,0.4-0.5,0.3-0.9,0.3c-1.8,0-3.5,0-5.2,0c-0.8,0-1-0.3-1.1-1c-0.1-2-0.2-4-0.4-6
		c-0.1-0.7,0.2-0.8,0.8-0.8c1.7,0,3.4,0,5.2,0c0.4,0.7,0.2,1.3,0,2c-0.2,0.8-0.4,1.7-0.6,2.5c-0.3,1.4,0.2,2.2,1.6,2.6
		C46.9,53.2,47.1,53.3,47.3,53.5z"/>
	<path class="st2" d="M73,53.8c-1.2,0-2.5,0-3.7,0c-0.6,0-0.8-0.2-0.8-0.8c0.1-2.1,0.1-4.2,0.2-6.3c0-0.6,0.3-0.7,0.9-0.7
		c1.7,0,3.3,0,5,0c0.2,0.2,0.3,0.5,0.2,0.8c-0.5,2.2-0.9,4.3-1.4,6.5C73.3,53.5,73.2,53.7,73,53.8z"/>
	<path class="st8" d="M31.5,61.5c-0.2-1.1-0.3-2.2-0.5-3.3c-0.1-0.5,0.1-0.7,0.6-0.7c1.9,0,3.8,0,5.7,0c0.5,0,0.8,0.2,0.9,0.8
		c0.1,1.2,0.2,2.4,0.3,3.5c-0.2,0.3-0.5,0.3-0.8,0.3c-1.7,0-3.4,0-5.2,0C31.9,62.1,31.7,62,31.5,61.5z"/>
	<path class="st1" d="M41,61.8c-0.1-1.1-0.2-2.2-0.3-3.3c-0.1-0.7,0.2-1.1,1-1c1.6,0,3.3,0,4.9,0c0.8,0,1,0.3,1,1c0,1.1,0,2.2,0,3.3
		c-0.2,0.3-0.5,0.3-0.8,0.3c-1.6,0-3.2,0-4.8,0C41.5,62.1,41.2,62.1,41,61.8z"/>
	<path class="st8" d="M50.2,61.8c0-1.2-0.2-2.3-0.2-3.5c0-0.6,0.2-0.8,0.8-0.8c1.6,0,3.2,0,4.8,0c0.6,0,0.9,0.2,0.8,0.8
		c0,1.2,0,2.3,0,3.5c-0.2,0.3-0.5,0.3-0.8,0.3c-1.6,0-3.1,0-4.7,0C50.7,62.2,50.4,62.1,50.2,61.8z"/>
	<path class="st2" d="M47.3,53.5c-2.2,0-3.1-1-2.6-3.2c0.3-1.4,0.6-2.8,1-4.3c0.1,0,0.3,0,0.4,0c1,0,1.1,0,1.1,1.1
		c0,0.1,0,0.3,0,0.4c0.2,1.4,0,2.8,0.1,4.1c0,0.5-0.1,1,0.1,1.6C47.3,53.3,47.3,53.4,47.3,53.5z"/>
	<path class="st2" d="M68.2,60c0-2.5,0-2.5,2.5-2.5c0.4,0,0.9,0,1.3,0c0.1,0.1,0.3,0.2,0.2,0.4c-0.2,0.9-0.2,1.9-0.8,2.7
		c-0.6,0.2-1,0.7-1.7,0.9C68.3,61.8,67.9,61.5,68.2,60z"/>
	<path class="st9" d="M65.7,60.2c0,0,0,0.1,0,0.2c-0.4,0.3-0.9,0.1-1.3,0c-1.5-0.7-3.1-0.9-4.5-1.5c-0.3-0.2-0.6-0.3-0.9-0.6
		c0-0.7,0.4-0.7,0.9-0.7c1.9,0,3.8,0,5.8,0C65.8,58.4,65.8,59.3,65.7,60.2z"/>
	<path class="st10" d="M59,58.2c1.7,0.3,3.3,1,5,1.5c0.6,0.2,1.1,0.4,1.7,0.7c0,0.4,0,0.8,0,1.2c-0.2,0.2-0.2,0.5-0.5,0.4
		c-0.4-0.3-1-0.3-1.5-0.5c-0.9-0.4-1.8-0.7-2.8-1c-0.8-0.2-1.5-0.4-1.9-1.2C59,58.9,59,58.5,59,58.2z"/>
	<path class="st8" d="M59,59.3c1.5,0.8,3.3,1,4.8,1.8c0,0.7-0.5,0.9-1.1,1c-1,0.1-2.1,0-3.1,0c-0.3,0-0.5-0.1-0.6-0.3
		C59,61,59,60.2,59,59.3z"/>
	<path class="st11" d="M59,61.8c0.9,0,1.8,0,2.7,0c0.8,0,1.5-0.2,2.2-0.7c0.5,0.1,1.1,0,1.3,0.7c0.2,0.5-0.2,0.5-0.4,0.7
		c-1.6,0-3.3,0-4.9,0C59.3,62.5,59,62.4,59,61.8z"/>
	<path class="st11" d="M31.5,61.5c0.3,0.3,0.7,0.3,1.2,0.3c1.9,0,3.9,0,5.8,0c0,0.5-0.2,0.7-0.7,0.7c-1.8,0-3.7,0-5.6,0
		C31.6,62.5,31.5,62.1,31.5,61.5z"/>
	<path class="st11" d="M41,61.8c2.2,0,4.3,0,6.5,0c0,0.5-0.3,0.7-0.7,0.7c-1.7,0-3.3,0-5,0C41.3,62.5,41,62.3,41,61.8z"/>
	<path class="st11" d="M50.2,61.8c2.1,0,4.2,0,6.3,0c0,0.5-0.3,0.7-0.7,0.7c-1.6,0-3.2,0-4.9,0C50.4,62.5,50.2,62.3,50.2,61.8z"/>
	<path class="st12" d="M71.2,60.4c-0.3,0.8-0.7,1.5-1.5,1.8c-0.3,0.1-0.5,0.2-0.8,0.3c-0.3,0.2-0.7,0.1-0.9-0.2
		c0.1-0.8-0.1-1.6,0.2-2.3c0.1,0.4-0.2,0.9,0.3,1.1c0.7,0.2,1.4,0,2.1-0.4C70.8,60.6,70.9,60.3,71.2,60.4z"/>
	<path class="st13" d="M68,62.3c0.6,0,1.2-0.1,1.7-0.1c-0.1,0-0.2,0.1-0.2,0.2c-0.1,0.3,0.2,0.1,0.2,0.1c1.1,0,2.2,0,3.3,0
		c-0.2,0.3-0.5,0.3-0.8,0.3c-1.2,0-2.3,0-3.5,0C68.4,62.8,68,62.9,68,62.3z"/>
	<path class="st1" d="M47.3,53.2c-0.3-0.8-0.1-1.6-0.2-2.5c0-1.1,0-2.2,0-3.2c0.3,0.9,0.1,1.8,0.2,2.6
		C47.4,51.1,47.3,52.2,47.3,53.2z"/>
	<path class="st10" d="M65.7,60.2c0-0.9,0-1.8,0-2.7C65.9,58.4,65.9,59.3,65.7,60.2z"/>
	<path class="st14" d="M37.2,11c-0.1,0.5-0.2,0.9-0.2,1.4c0,0.6,0.3,1,0.8,1.1c0.6,0.1,0.9-0.3,1-0.8s0.2-1,0.3-1.5
		c0.2-0.1,0.3,0,0.3,0.2c0.4,1,0.5,2-0.3,2.9c-0.9,1-1.8,1-2.6,0c-0.7-0.9-0.6-2.5,0.2-3.2C37,10.8,37.1,10.6,37.2,11z"/>
	<path class="st14" d="M57.6,10.9c0.4-0.3,0.5,0.1,0.7,0.3c1.1,1.4,0.3,3.5-1.5,3.8c-0.4-0.1-0.8-0.1-1-0.5c-0.8-1-0.7-2.1-0.5-3.2
		c0.1-0.2,0.2-0.3,0.3-0.2c0.1,0.5,0.2,1,0.3,1.5c0.1,0.5,0.3,1,0.9,0.9c0.6-0.1,1-0.6,1-1.2C57.9,11.9,57.7,11.4,57.6,10.9z"/>
	<path class="st15" d="M55.7,11.2c-0.1,0.1-0.2,0.1-0.3,0.2c-0.3-0.6-0.7-1.2-1.1-1.8c-0.4-0.5-0.8-1-1.4-1.6c0.6,0,1.1,0,1.6,0
		C55,9,55.5,10,55.7,11.2z"/>
	<path class="st15" d="M39.5,11.3c-0.1-0.1-0.2-0.1-0.3-0.2C39.3,10,39.8,9,40.4,8c0.4,0.1,1-0.2,1.2,0.2c0.1,0.4-0.4,0.7-0.8,1
		C40.1,9.7,39.9,10.6,39.5,11.3z"/>
	<path class="st8" d="M59.9,18.5c0.6-1.2,1.5-2.1,2.6-2.9c0.8-0.6,1.8-0.7,2.8-0.8c0.4,0,0.5,0.3,0.5,0.6c0,0.8,0,1.7,0,2.5
		c-0.6-0.3-1.3-0.5-2-0.8c-1-0.4-1.9-0.1-2.7,0.6c-0.3,0.3-0.6,0.6-1,0.7C60,18.6,59.9,18.6,59.9,18.5z"/>
	<path class="st16" d="M59.9,18.5c0,0,0.1,0,0.1,0c0,0.6,0.2,1.2-0.2,1.7c-0.3,0.5-0.5,0.9-1.2,0.9c-0.7,0-0.9-0.5-1.2-1
		c-0.5-1,0.1-2.1,1.1-2.1c-0.3,0.5-0.5,0.9-0.4,1.5c0.1,0.3,0.2,0.6,0.6,0.6c0.3,0,0.5-0.1,0.7-0.4C59.5,19.3,59.7,18.9,59.9,18.5z"
		/>
	<path class="st16" d="M71.8,23.4c0,0.2,0,0.4,0,0.6c0.1,0.4,0.2,0.7,0.6,0.7c0.4,0,0.7-0.2,0.8-0.6c0-0.2,0-0.4,0-0.6
		c0.2-0.4,0.4-0.3,0.5,0c0.2,0.6,0.1,1.2-0.3,1.7c-0.4,0.5-1,0.5-1.5,0.3c-0.6-0.2-0.8-0.7-0.8-1.3c-0.1-0.5,0.1-0.9,0.3-1.3
		c0.1-0.1,0.1-0.4,0.3-0.3c0.2,0,0.1,0.2,0.1,0.4C71.9,23,71.9,23.2,71.8,23.4z"/>
	<path class="st17" d="M71.8,23.4c-0.1-0.2,0.2-0.7-0.3-0.5c0-1-0.3-1.9-0.8-2.7c-0.1-0.2-0.3-0.4-0.1-0.7c0.3,0,0.5,0.3,0.8,0.4
		C72,20.9,72.1,22.1,71.8,23.4z"/>
</g>
</svg>
