<?xml version="1.0" encoding="utf-8"?>
<!-- Generator: Adobe Illustrator 23.0.3, SVG Export Plug-In . SVG Version: 6.00 Build 0)  -->
<svg version="1.1" id="Layer_1" xmlns="http://www.w3.org/2000/svg" xmlns:xlink="http://www.w3.org/1999/xlink" x="0px" y="0px"
	 viewBox="0 0 100 100" style="enable-background:new 0 0 100 100;" xml:space="preserve">
<style type="text/css">
	.st0{fill:#252525;}
	.st1{fill:#888888;}
	.st2{fill:#9F9F9F;}
	.st3{fill:#A7A7A7;}
	.st4{fill:#D6D6D6;}
</style>
<g>
	<path class="st0" d="M0,78.9c0-20.18,0-40.36,0-60.54c0.47-1.37,1.5-2.01,2.84-2.5C15.67,11.2,28.53,6.63,41.33,1.88
		C43.9,0.93,46.58,0.6,49.22,0c0.52,0,1.04,0,1.56,0c10.27,1.78,19.63,6.36,29.45,9.54c5.69,1.84,11.25,4.04,16.92,5.94
		c1.35,0.45,2.39,1.1,2.85,2.49c0,20.31,0,40.62,0,60.93c-0.47,1.28-1.4,1.97-2.66,2.5C83.75,87.17,70.1,92.78,56.51,98.56
		c-1.83,0.78-3.85,0.87-5.73,1.44c-0.52,0-1.04,0-1.56,0c-5.64-0.86-10.62-3.57-15.79-5.71C23.15,90.04,12.9,85.73,2.66,81.4
		C1.4,80.87,0.47,80.18,0,78.9z"/>
	<path class="st1" d="M48.44,66.4c0,9.11,0,18.21,0,27.32c0,2.25-0.09,2.31-2.15,1.44c-13.8-5.78-27.58-11.58-41.39-17.33
		c-1.24-0.52-1.79-1.19-1.79-2.6c0.04-17.24,0.05-34.47,0-51.71c0-1.87,0.62-2,2.2-1.45c13.69,4.79,27.39,9.55,41.11,14.25
		c1.58,0.54,2.07,1.35,2.06,2.96C48.4,48.32,48.44,57.36,48.44,66.4z"/>
	<path class="st2" d="M51.56,66.36c0-9.04,0.04-18.09-0.03-27.13c-0.01-1.63,0.48-2.43,2.06-2.94c3.9-1.26,7.75-2.66,11.59-4.1
		c1.5-0.56,2.09-0.36,2.04,1.39c-0.09,3.58-0.05,7.16-0.02,10.73c0.02,2.38,0.81,2.92,3.05,2.1c3.54-1.3,7.06-2.68,10.61-3.94
		c1.44-0.52,2.01-1.39,1.98-2.92c-0.07-3.97,0.02-7.94-0.04-11.91c-0.02-1.24,0.42-1.87,1.6-2.27c3.45-1.16,6.87-2.42,10.31-3.63
		c2.15-0.75,2.17-0.74,2.17,1.49c0.01,10.28,0,20.56,0,30.84c0,6.96-0.04,13.92,0.03,20.89c0.02,1.51-0.41,2.31-1.88,2.92
		c-13.82,5.73-27.6,11.54-41.4,17.32c-2.01,0.84-2.06,0.81-2.06-1.33C51.56,84.71,51.56,75.54,51.56,66.36z"/>
	<path class="st3" d="M7.03,18.83c2.21-0.81,4.56-1.39,6.63-2.49c4.86-2.56,9.37-2.08,14.42-0.04c10.83,4.4,21.92,8.17,32.89,12.2
		c0.65,0.24,1.38,0.36,2.09,1.13c-4.32,1.52-8.47,2.98-12.63,4.43c-0.59,0.21-1.16-0.04-1.71-0.23
		c-13.51-4.68-27.01-9.37-40.51-14.08C7.82,19.63,7.29,19.63,7.03,18.83z"/>
	<path class="st3" d="M38.68,7.33c3.7-1.33,7.29-2.61,10.88-3.89c0.53-0.19,1.03,0,1.52,0.17c13.73,4.87,27.45,9.75,41.17,14.62
		c0.24,0.08,0.45,0.23,0.88,0.45c-1.27,0.98-2.76,1.06-3.96,1.71c-5.45,2.95-10.62,2.35-16.28,0.02c-10.51-4.33-21.32-7.95-32-11.88
		C40.19,8.27,39.38,8.2,38.68,7.33z"/>
	<path class="st4" d="M25.69,12.05c2.69-0.98,4.94-1.8,7.19-2.61c0.58-0.21,1.14-0.1,1.71,0.11c13.54,4.97,27.08,9.94,40.63,14.91
		c0.22,0.08,0.41,0.22,0.97,0.54c-2.76,0.97-5.18,1.86-7.63,2.66c-0.38,0.12-0.9-0.05-1.31-0.2c-13.49-4.93-26.97-9.88-40.45-14.83
		C26.57,12.54,26.36,12.4,25.69,12.05z"/>
	<path class="st4" d="M70.31,36.64c0-0.65,0-1.3,0-1.94c0-4.33,0-4.32,4.17-5.8c1.34-0.47,2.69-0.95,4.02-1.44
		c0.8-0.29,1.19-0.13,1.19,0.82c-0.03,3.44-0.02,6.87-0.01,10.31c0,0.68-0.27,1.06-0.91,1.3c-2.43,0.89-4.87,1.78-7.27,2.73
		c-1.04,0.41-1.22,0-1.2-0.92C70.34,40.02,70.31,38.33,70.31,36.64z"/>
</g>
</svg>
